<svg width="256" height="256" viewBox="0 0 256 256" fill="none" xmlns="http://www.w3.org/2000/svg">
<path d="M77.5341 91.2727H86.3409V139.426C86.3409 144.398 85.169 148.837 82.8253 152.743C80.5052 156.625 77.2263 159.691 72.9886 161.94C68.7509 164.166 63.7794 165.278 58.0739 165.278C52.3684 165.278 47.3968 164.166 43.1591 161.94C38.9214 159.691 35.6307 156.625 33.2869 152.743C30.9669 148.837 29.8068 144.398 29.8068 139.426V91.2727H38.6136V138.716C38.6136 142.267 39.3949 145.428 40.9574 148.197C42.5199 150.944 44.7453 153.11 47.6335 154.696C50.5455 156.259 54.0256 157.04 58.0739 157.04C62.1222 157.04 65.6023 156.259 68.5142 154.696C71.4261 153.11 73.6515 150.944 75.1903 148.197C76.7528 145.428 77.5341 142.267 77.5341 138.716V91.2727ZM111.144 164L97.8484 120.364H104.894L114.326 153.773H114.78L124.098 120.364H131.257L140.462 153.659H140.917L150.348 120.364H157.394L144.098 164H137.507L127.962 130.477H127.28L117.735 164H111.144ZM216.655 91.2727H225.462V139.426C225.462 144.398 224.29 148.837 221.946 152.743C219.626 156.625 216.347 159.691 212.11 161.94C207.872 164.166 202.9 165.278 197.195 165.278C191.489 165.278 186.518 164.166 182.28 161.94C178.042 159.691 174.752 156.625 172.408 152.743C170.088 148.837 168.928 144.398 168.928 139.426V91.2727H177.735V138.716C177.735 142.267 178.516 145.428 180.078 148.197C181.641 150.944 183.866 153.11 186.755 154.696C189.667 156.259 193.147 157.04 197.195 157.04C201.243 157.04 204.723 156.259 207.635 154.696C210.547 153.11 212.773 150.944 214.311 148.197C215.874 145.428 216.655 142.267 216.655 138.716V91.2727Z" fill="#E2E8F0"/>
</svg>
